<svg class="headphone" xmlns="http://www.w3.org/2000/svg" width="48" height="45"><g fill="currentColor" fill-rule="evenodd"><path d="M16 29.188c0 .146-.006.272-.017.376-.012.103-.03.188-.052.254a.293.293 0 01-.09.14.2.2 0 01-.124.042h-5.143a.998.998 0 01-.263-.03.336.336 0 01-.18-.118.58.58 0 01-.1-.254 2.449 2.449 0 01-.031-.433c0-.167.007-.31.02-.429a1.308 1.308 0 01.219-.593c.057-.088.132-.185.224-.292l1.549-1.822c.308-.354.557-.677.746-.968.189-.291.337-.557.443-.797a2.966 2.966 0 00.276-1.242c0-.167-.024-.325-.073-.475a1.148 1.148 0 00-.214-.39.978.978 0 00-.356-.263 1.236 1.236 0 00-.504-.094c-.272 0-.513.037-.723.113-.21.076-.394.161-.553.255a4.48 4.48 0 00-.397.258c-.106.079-.19.118-.25.118a.143.143 0 01-.106-.046.333.333 0 01-.072-.152 1.878 1.878 0 01-.046-.284 4.688 4.688 0 01-.007-.73c.007-.078.017-.146.032-.204a.643.643 0 01.055-.152.782.782 0 01.121-.156 1.65 1.65 0 01.318-.232c.154-.093.344-.184.57-.273a5.03 5.03 0 01.747-.224c.271-.06.555-.091.85-.091.465 0 .872.064 1.22.194.347.129.637.309.867.539.23.23.402.504.515.82.113.317.17.657.17 1.021 0 .319-.028.633-.083.941-.056.31-.171.642-.346 1a8.003 8.003 0 01-.74 1.183c-.318.433-.74.936-1.264 1.508l-1.044 1.177h3.525c.046 0 .088.015.127.045.04.03.073.078.101.14a.954.954 0 01.062.252c.014.103.021.226.021.368m6.032-7.45h-.014l-2.487 4.556h2.501v-4.556zM25 27.106c0 .26-.026.458-.077.593-.05.135-.12.203-.207.203h-.839v1.792c0 .05-.015.096-.044.134a.323.323 0 01-.153.096 1.329 1.329 0 01-.284.057 4.563 4.563 0 01-.453.019c-.174 0-.321-.007-.44-.02a1.264 1.264 0 01-.285-.056.296.296 0 01-.146-.096.226.226 0 01-.04-.134v-1.792h-3.61a.563.563 0 01-.181-.027.25.25 0 01-.135-.122.8.8 0 01-.08-.276 3.53 3.53 0 01-.026-.478c0-.164.004-.305.01-.426.008-.12.02-.228.037-.325a1.64 1.64 0 01.073-.276 3.05 3.05 0 01.12-.276l2.932-5.429a.304.304 0 01.124-.118.893.893 0 01.244-.084c.104-.023.237-.04.398-.05.16-.01.355-.015.583-.015.248 0 .46.006.634.019a2.3 2.3 0 01.42.061.616.616 0 01.23.103c.048.041.072.09.072.146v5.965h.839c.077 0 .144.063.2.187.056.126.084.333.084.625zm1.756 5.55a.48.48 0 01-.092.164.414.414 0 01-.159.102 1.147 1.147 0 01-.254.058 2.94 2.94 0 01-.386.02c-.192 0-.35-.01-.473-.032a.755.755 0 01-.279-.093.227.227 0 01-.11-.16.52.52 0 01.029-.231l4.226-13.132a.43.43 0 01.084-.168.385.385 0 01.156-.105c.065-.027.152-.046.258-.06.106-.013.234-.019.385-.019.198 0 .357.01.477.032.12.02.21.051.272.093a.23.23 0 01.106.16.58.58 0 01-.021.231l-4.219 13.14zM39 20.854a4.7 4.7 0 01-.014.388c-.009.11-.021.213-.037.308a1.912 1.912 0 01-.066.27 5.804 5.804 0 01-.096.272l-2.924 7.593a.464.464 0 01-.107.161.44.44 0 01-.182.097 1.426 1.426 0 01-.298.045 7.138 7.138 0 01-.45.012c-.242 0-.434-.009-.576-.027a.869.869 0 01-.313-.084c-.066-.039-.102-.088-.106-.147a.49.49 0 01.048-.219l3.144-7.77h-3.734c-.097 0-.169-.07-.217-.21-.047-.142-.072-.367-.072-.674 0-.154.007-.286.02-.396.015-.11.034-.201.059-.273a.371.371 0 01.09-.154.172.172 0 01.12-.046h5.279c.082 0 .15.009.206.027a.229.229 0 01.13.119.844.844 0 01.072.261c.016.113.024.262.024.447M30.323 43L30 40.921c5.614-.946 10.552-4.655 13.211-9.921l1.789.98c-2.953 5.85-8.44 9.969-14.677 11.02M5.297 18.67l-2.124-.34C4.848 7.708 13.802 0 24.464 0c10.668 0 19.622 7.709 21.291 18.33l-2.123.34C42.13 9.11 34.068 2.171 24.464 2.171c-9.599 0-17.66 6.94-19.167 16.5"/><path d="M2.054 29.84h2.892V19.16H2.054v10.68zM0 32h7V17H0v15zm43.054-2.16h2.892V19.16h-2.892v10.68zM41 32h7V17h-7v15zM23.207 42.915h4.586v-1.83h-4.586v1.83zM21 45h9v-6h-9v6z"/></g></svg>