<svg class="promotion" xmlns="http://www.w3.org/2000/svg" width="64" height="45"><g fill="currentColor" fill-rule="evenodd"><path d="M35.187 21.833a1.5 1.5 0 11-1.374-2.667 1.5 1.5 0 011.374 2.667"/><path d="M2.791 26.888l7.803 15.294 26.045-13.545 3.644-11.57-11.446-3.725L2.791 26.888zM9.701 45L0 25.986l28.653-14.902 14.23 4.63-4.53 14.385L9.7 44.999z"/><path d="M14.732 32.16c.173.351.262.694.268 1.027a2.24 2.24 0 01-.183.94c-.126.293-.31.561-.553.805a3.59 3.59 0 01-.854.63 3.788 3.788 0 01-1.213.408c-.171.025-.32.035-.446.028a1.121 1.121 0 01-.286-.042.413.413 0 01-.188-.145 1.958 1.958 0 01-.207-.35 3.17 3.17 0 01-.122-.275.914.914 0 01-.054-.192.228.228 0 01.012-.127.167.167 0 01.073-.076c.046-.025.125-.031.237-.02a3.129 3.129 0 00.982-.051c.21-.041.437-.127.678-.256a1.66 1.66 0 00.395-.29c.106-.107.184-.22.236-.34a.84.84 0 00.068-.377 1.004 1.004 0 00-.107-.394.69.69 0 00-.31-.327 1.304 1.304 0 00-.452-.123 3.465 3.465 0 00-.55-.005 21.93 21.93 0 01-.615.034 4.85 4.85 0 01-.638-.012 2.207 2.207 0 01-.62-.144 1.898 1.898 0 01-.564-.355 2.106 2.106 0 01-.473-.655A2.225 2.225 0 019 30.54a2.025 2.025 0 01.162-.853c.114-.265.283-.507.506-.727a3.368 3.368 0 011.247-.778 3.32 3.32 0 01.473-.13 2.57 2.57 0 01.42-.05.878.878 0 01.267.02c.05.017.086.035.11.052a.458.458 0 01.076.08c.028.035.058.082.092.14a5.048 5.048 0 01.233.48c.029.072.049.133.06.185.01.05.01.093-.002.124a.14.14 0 01-.071.078c-.036.02-.106.027-.209.021a4.43 4.43 0 00-.37 0 3.052 3.052 0 00-.476.06 1.959 1.959 0 00-.534.2c-.142.076-.256.16-.344.254a.902.902 0 00-.19.292.697.697 0 00-.046.316c.01.108.04.212.089.312a.69.69 0 00.306.323c.13.067.282.108.454.121.171.015.358.015.56 0 .2-.015.407-.027.62-.036a5.47 5.47 0 01.643.01c.216.017.425.063.626.14.2.078.39.194.566.35.177.155.331.368.464.637m1.619-5.399l-.005.002.498 3.497 1.824-1.027-2.317-2.472zm5.38 3.49c.1.107.175.196.22.267.046.07.06.135.041.193-.018.06-.072.119-.16.18a5.01 5.01 0 01-.376.23 8.64 8.64 0 01-.4.213 1.014 1.014 0 01-.231.089c-.057.011-.103.009-.136-.01a.375.375 0 01-.104-.085l-1.097-1.17-2.415 1.36.24 1.602a.54.54 0 01.008.158.274.274 0 01-.066.14.856.856 0 01-.184.155 5.086 5.086 0 01-.706.39c-.091.039-.163.046-.215.023-.053-.023-.093-.075-.119-.158a2.09 2.09 0 01-.068-.346l-.956-7.347a.658.658 0 010-.188.308.308 0 01.085-.158c.048-.052.123-.11.223-.173a12.97 12.97 0 01.874-.493c.119-.059.215-.098.29-.114a.265.265 0 01.18.012.557.557 0 01.15.121l4.922 5.109zm5.09-2.518c.054.101.096.189.123.262a.85.85 0 01.053.192.239.239 0 01-.013.131.158.158 0 01-.075.077l-3.098 1.546a.499.499 0 01-.343.045c-.113-.026-.209-.114-.288-.263l-3.162-5.947a.157.157 0 01-.014-.108.26.26 0 01.077-.122c.043-.043.107-.091.19-.146a3.54 3.54 0 01.324-.18c.136-.068.25-.119.342-.152.093-.034.17-.055.23-.064a.274.274 0 01.148.01c.037.015.065.04.082.073l2.801 5.27 2.127-1.061a.175.175 0 01.106-.018.235.235 0 01.114.059.79.79 0 01.128.147c.046.065.095.148.148.249m5.02-3.308c.05.107.089.198.113.274.026.075.04.14.045.193a.266.266 0 01-.018.132.165.165 0 01-.069.077l-3.288 1.835a.436.436 0 01-.332.05c-.11-.03-.202-.124-.279-.286l-2.94-6.182c-.076-.162-.092-.298-.05-.412a.49.49 0 01.23-.263l3.267-1.824a.142.142 0 01.094-.018.209.209 0 01.106.061c.04.036.08.088.122.155.042.066.09.155.142.264.048.103.085.192.11.268.026.076.04.14.044.193a.287.287 0 01-.014.13.147.147 0 01-.067.075l-2.338 1.305.824 1.732 1.978-1.104c.03-.016.063-.022.098-.016.035.006.07.026.108.058a.705.705 0 01.118.148c.042.067.088.151.136.254.05.106.089.196.113.27a.778.778 0 01.042.188.243.243 0 01-.021.126.167.167 0 01-.07.074l-1.979 1.104.952 2 2.357-1.315a.143.143 0 01.098-.016.228.228 0 01.11.06.8.8 0 01.12.153c.042.066.088.151.138.257m9.228-3.553l-.007-2.1c7.366-.027 12.824-.787 15.37-2.14 2.43-1.293 4.093-3.09 4.81-5.195.618-1.816.494-3.746-.348-5.433-1.566-3.142-5.668-5.24-10.972-2.42C44.477 6.481 36.11 20.11 36.026 20.248l-1.72-1.12c.354-.581 8.748-14.252 14.685-17.41 6.254-3.325 11.632-.845 13.712 3.325 1.1 2.206 1.263 4.724.457 7.091-.892 2.622-2.897 4.823-5.797 6.366-3.622 1.925-10.86 2.353-16.294 2.373"/></g></svg>