<svg class="shield" xmlns="http://www.w3.org/2000/svg" width="42" height="45"><g fill="currentColor" fill-rule="evenodd"><path d="M20.362 28l-5.181-7.532a1.025 1.025 0 01.277-1.435 1.053 1.053 0 011.453.274l3.451 5.017 4.726-6.871a1.054 1.054 0 011.454-.274c.477.32.602.962.277 1.435L20.362 28z"/><path d="M3.758 2.917C2.732 6.475 2.21 10.275 2.21 14.213c0 13.8 15.358 25.708 18.437 27.956l.161.117.161-.117C24.047 39.92 39.4 28.012 39.4 14.213c0-3.925-.52-7.726-1.549-11.295l-.085-.298-4.154 1.706c-1.265.52-2.604.783-3.982.783-1.377 0-2.717-.263-3.982-.783l-4.842-1.99-4.843 1.99a10.42 10.42 0 01-3.981.783c-1.378 0-2.718-.263-3.983-.783L3.844 2.62l-.086.298zm16.443 41.678C19.376 44.042 0 30.887 0 14.213 0 9.843.609 5.635 1.81 1.7A1.97 1.97 0 014.444.44l4.381 1.8a8.269 8.269 0 003.157.62c1.09 0 2.151-.208 3.155-.62L20.064.215a1.955 1.955 0 011.483-.001l4.927 2.026a8.268 8.268 0 003.156.62 8.264 8.264 0 003.155-.62l4.382-1.8A1.97 1.97 0 0139.8 1.703c1.201 3.945 1.81 8.154 1.81 12.51 0 16.68-19.372 29.83-20.196 30.381l-.607.406-.607-.405z"/></g></svg>