<?xml version="1.0" encoding="UTF-8"?>
<!DOCTYPE svg PUBLIC "-//W3C//DTD SVG 1.1//EN" "http://www.w3.org/Graphics/SVG/1.1/DTD/svg11.dtd">
<!-- Creator: CorelDRAW 2019 (64-Bit) -->
<svg xmlns="http://www.w3.org/2000/svg" xml:space="preserve" width="2.39999in" height="1.73333in" version="1.1" style="shape-rendering:geometricPrecision; text-rendering:geometricPrecision; image-rendering:optimizeQuality; fill-rule:evenodd; clip-rule:evenodd"
viewBox="0 0 2400 1733"
 xmlns:xlink="http://www.w3.org/1999/xlink"
 xmlns:xodm="http://www.corel.com/coreldraw/odm/2003">
 <defs>
  <style type="text/css">
   <![CDATA[
    .fil2 {fill:#91D8F7;fill-rule:nonzero}
    .fil1 {fill:#0098DA;fill-rule:nonzero}
    .fil0 {fill:#0098DA;fill-rule:nonzero}
   ]]>
  </style>
 </defs>
 <g id="Layer_x0020_1">
  <metadata id="CorelCorpID_0Corel-Layer"/>
  <g id="_2316236118944">
   <path class="fil0" d="M85 1386c9,0 16,-2 21,-7 5,-5 7,-13 7,-24l0 -23c0,-11 -2,-18 -6,-23 -4,-5 -10,-7 -18,-7l-21 0 0 85 17 0zm-63 -127l69 0c24,0 41,6 52,17 11,11 17,28 17,51l0 18c0,31 -10,50 -30,58l0 1c11,3 19,10 24,21 5,10 7,24 7,42l0 52c0,8 0,15 1,21 1,5 2,10 4,15l-47 0c-2,-5 -3,-9 -3,-14 -1,-4 -1,-12 -1,-23l0 -54c0,-14 -2,-23 -7,-28 -4,-5 -12,-8 -23,-8l-16 0 0 127 -47 0 0 -297z"/>
   <path class="fil0" d="M309 1488l0 -162c0,-19 -8,-29 -24,-29 -16,0 -24,10 -24,29l0 162c0,19 8,29 24,29 16,0 24,-10 24,-29zm-77 52c-12,-13 -18,-31 -18,-55l0 -156c0,-24 6,-42 18,-55 12,-13 30,-19 52,-19 23,0 40,7 52,19 12,13 18,31 18,55l0 156c0,24 -6,42 -18,55 -12,13 -30,19 -52,19 -23,0 -40,-6 -52,-19z"/>
   <polygon class="fil0" points="447,1429 391,1259 440,1259 472,1368 473,1368 504,1259 550,1259 493,1429 493,1556 447,1556 "/>
   <path class="fil0" d="M664 1457l-21 -147 -1 0 -20 147 42 0zm-51 -198l63 0 48 297 -47 0 -8 -59 0 1 -53 0 -8 58 -43 0 48 -297z"/>
   <polygon class="fil0" points="772,1259 818,1259 818,1513 895,1513 895,1556 772,1556 "/>
   <path class="fil0" d="M1109 1513c8,0 14,-2 18,-7 4,-4 6,-12 6,-23l0 -26c0,-14 -2,-23 -7,-28 -5,-5 -12,-8 -23,-8l-21 0 0 91 27 0zm-8 -133c9,0 16,-2 21,-7 5,-5 7,-13 7,-24l0 -17c0,-11 -2,-18 -6,-23 -4,-5 -10,-7 -18,-7l-22 0 0 78 18 0zm-65 -121l70 0c24,0 41,6 52,17 11,11 17,28 17,51l0 12c0,15 -2,28 -7,37 -5,10 -12,17 -23,21l0 1c23,8 35,29 35,62l0 25c0,23 -6,40 -18,52 -12,12 -30,18 -53,18l-73 0 0 -297z"/>
   <polygon class="fil0" points="1232,1259 1279,1259 1279,1513 1355,1513 1355,1556 1232,1556 "/>
   <path class="fil0" d="M1493 1488l0 -162c0,-19 -8,-29 -24,-29 -16,0 -24,10 -24,29l0 162c0,19 8,29 24,29 16,0 24,-10 24,-29zm-77 52c-12,-13 -18,-31 -18,-55l0 -156c0,-24 6,-42 18,-55 12,-13 30,-19 52,-19 23,0 40,7 52,19 12,13 18,31 18,55l0 156c0,24 -6,42 -18,55 -12,13 -30,19 -52,19 -23,0 -40,-6 -52,-19z"/>
   <path class="fil0" d="M1687 1488l0 -162c0,-19 -8,-29 -24,-29 -16,0 -24,10 -24,29l0 162c0,19 8,29 24,29 16,0 24,-10 24,-29zm-77 52c-12,-13 -18,-31 -18,-55l0 -156c0,-24 6,-42 18,-55 12,-13 30,-19 52,-19 23,0 40,7 52,19 12,13 18,31 18,55l0 156c0,24 -6,42 -18,55 -12,13 -30,19 -52,19 -23,0 -40,-6 -52,-19z"/>
   <polygon class="fil0" points="1791,1259 1857,1259 1887,1471 1888,1471 1917,1259 1984,1259 1984,1556 1940,1556 1940,1331 1939,1331 1905,1556 1866,1556 1832,1331 1831,1331 1831,1556 1791,1556 "/>
   <path class="fil0" d="M2131 1457l-21 -147 -1 0 -20 147 42 0zm-51 -198l63 0 48 297 -47 0 -8 -59 0 1 -53 0 -8 58 -43 0 48 -297z"/>
   <path class="fil0" d="M2328 1457l-21 -147 -1 0 -20 147 42 0zm-51 -198l63 0 48 297 -47 0 -8 -59 0 1 -53 0 -8 58 -43 0 48 -297z"/>
   <path class="fil1" d="M74 1679l-10 -31 -10 31 21 0zm5 16l-32 0 -5 15 -22 0 31 -85 24 0 31 85 -22 0 -5 -15z"/>
   <path class="fil1" d="M189 1708c-5,-2 -9,-5 -12,-9 -3,-4 -4,-9 -5,-14l22 0c0,3 1,6 3,7 2,2 4,2 7,2 3,0 5,-1 7,-2 2,-1 3,-3 3,-6 0,-2 -1,-4 -2,-5 -1,-1 -3,-2 -5,-3 -2,-1 -5,-2 -9,-3 -5,-2 -10,-3 -13,-5 -3,-2 -6,-4 -9,-7 -2,-3 -4,-8 -4,-13 0,-8 3,-14 9,-18 6,-4 13,-7 22,-7 9,0 17,2 22,7 6,4 9,11 9,19l-22 0c0,-3 -1,-5 -3,-6 -2,-2 -4,-2 -7,-2 -2,0 -4,1 -6,2 -2,1 -2,3 -2,6 0,3 1,5 4,6 3,2 7,3 12,5 5,2 10,4 13,5 3,2 6,4 9,7 2,3 4,7 4,12 0,5 -1,9 -4,13 -2,4 -6,7 -11,9 -5,2 -10,3 -16,3 -6,0 -12,-1 -17,-3z"/>
   <path class="fil1" d="M267 1645c4,-7 9,-12 15,-15 6,-4 14,-5 22,-5 10,0 19,3 26,8 7,5 12,13 14,22l-23 0c-2,-4 -4,-6 -7,-8 -3,-2 -7,-3 -11,-3 -6,0 -11,2 -15,7 -4,4 -6,10 -6,18 0,7 2,13 6,18 4,4 9,7 15,7 4,0 7,-1 11,-3 3,-2 5,-5 7,-8l23 0c-2,9 -7,16 -14,22 -7,5 -16,8 -26,8 -8,0 -16,-2 -22,-5 -6,-4 -11,-9 -15,-15 -4,-7 -5,-14 -5,-22 0,-8 2,-16 5,-22z"/>
   <polygon class="fil1" points="394,1642 394,1659 422,1659 422,1675 394,1675 394,1694 426,1694 426,1710 374,1710 374,1625 426,1625 426,1642 "/>
   <polygon class="fil1" points="531,1710 511,1710 476,1658 476,1710 456,1710 456,1625 476,1625 511,1678 511,1625 531,1625 "/>
   <polygon class="fil1" points="624,1625 624,1642 601,1642 601,1710 581,1710 581,1642 559,1642 559,1625 "/>
   <polygon class="fil1" points="754,1625 754,1642 732,1642 732,1710 711,1710 711,1642 689,1642 689,1625 "/>
   <polygon class="fil1" points="854,1625 854,1710 834,1710 834,1675 802,1675 802,1710 781,1710 781,1625 802,1625 802,1659 834,1659 834,1625 "/>
   <path class="fil1" d="M933 1679l-10 -31 -10 31 21 0zm5 16l-32 0 -5 15 -22 0 31 -85 24 0 31 85 -22 0 -5 -15z"/>
   <polygon class="fil1" points="1052,1625 1052,1642 1030,1642 1030,1710 1009,1710 1009,1642 987,1642 987,1625 "/>
   <path class="fil1" d="M1136 1708c-5,-2 -9,-5 -12,-9 -3,-4 -4,-9 -5,-14l22 0c0,3 1,6 3,7 2,2 4,2 7,2 3,0 5,-1 7,-2 2,-1 3,-3 3,-6 0,-2 -1,-4 -2,-5 -1,-1 -3,-2 -5,-3 -2,-1 -5,-2 -9,-3 -5,-2 -10,-3 -13,-5 -3,-2 -6,-4 -9,-7 -2,-3 -4,-8 -4,-13 0,-8 3,-14 9,-18 6,-4 13,-7 22,-7 9,0 17,2 22,7 6,4 9,11 9,19l-22 0c0,-3 -1,-5 -3,-6 -2,-2 -4,-2 -7,-2 -2,0 -4,1 -6,2 -2,1 -2,3 -2,6 0,3 1,5 4,6 3,2 7,3 12,5 5,2 10,4 13,5 3,2 6,4 9,7 2,3 4,7 4,12 0,5 -1,9 -4,13 -2,4 -6,7 -11,9 -5,2 -10,3 -16,3 -6,0 -12,-1 -17,-3z"/>
   <path class="fil1" d="M1253 1661c2,-2 3,-4 3,-8 0,-3 -1,-6 -3,-8 -2,-2 -5,-3 -9,-3l-11 0 0 21 11 0c4,0 7,-1 9,-3zm20 6c-2,4 -6,7 -10,10 -5,2 -10,4 -17,4l-13 0 0 30 -21 0 0 -85 33 0c7,0 12,1 17,3 5,2 8,6 10,10 2,4 3,9 3,14 0,5 -1,9 -3,13z"/>
   <polygon class="fil1" points="1325,1642 1325,1659 1353,1659 1353,1675 1325,1675 1325,1694 1356,1694 1356,1710 1305,1710 1305,1625 1356,1625 1356,1642 "/>
   <path class="fil1" d="M1434 1679l-10 -31 -10 31 21 0zm5 16l-32 0 -5 15 -22 0 31 -85 24 0 31 85 -22 0 -5 -15z"/>
   <polygon class="fil1" points="1541,1710 1513,1673 1513,1710 1492,1710 1492,1625 1513,1625 1513,1663 1541,1625 1565,1625 1532,1667 1566,1710 "/>
   <path class="fil1" d="M1607 1708c-5,-2 -9,-5 -12,-9 -3,-4 -4,-9 -5,-14l22 0c0,3 1,6 3,7 2,2 4,2 7,2 3,0 5,-1 7,-2 2,-1 3,-3 3,-6 0,-2 -1,-4 -2,-5 -1,-1 -3,-2 -5,-3 -2,-1 -5,-2 -9,-3 -5,-2 -10,-3 -13,-5 -3,-2 -6,-4 -9,-7 -2,-3 -4,-8 -4,-13 0,-8 3,-14 9,-18 6,-4 13,-7 22,-7 9,0 17,2 22,7 6,4 9,11 9,19l-22 0c0,-3 -1,-5 -3,-6 -2,-2 -4,-2 -7,-2 -2,0 -4,1 -6,2 -2,1 -2,3 -2,6 0,3 1,5 4,6 3,2 7,3 12,5 5,2 10,4 13,5 3,2 6,4 9,7 2,3 4,7 4,12 0,5 -1,9 -4,13 -2,4 -6,7 -11,9 -5,2 -10,3 -16,3 -6,0 -12,-1 -17,-3z"/>
   <polygon class="fil1" points="1805,1625 1775,1710 1749,1710 1719,1625 1741,1625 1762,1689 1783,1625 "/>
   <path class="fil1" d="M1887 1685c4,-4 6,-10 6,-18 0,-7 -2,-13 -6,-18 -4,-4 -9,-7 -16,-7 -7,0 -12,2 -16,7 -4,4 -6,10 -6,18 0,7 2,13 6,18 4,4 9,7 16,7 7,0 12,-2 16,-7zm-38 20c-7,-4 -12,-9 -16,-15 -4,-7 -6,-14 -6,-22 0,-8 2,-16 6,-22 4,-7 9,-12 16,-15 7,-4 14,-6 22,-6 8,0 15,2 22,6 7,4 12,9 16,15 4,7 6,14 6,22 0,8 -2,16 -6,22 -4,7 -9,12 -16,15 -7,4 -14,6 -22,6 -8,0 -15,-2 -22,-6z"/>
   <polygon class="fil1" points="1962,1694 1989,1694 1989,1710 1942,1710 1942,1625 1962,1625 "/>
   <path class="fil1" d="M2036 1625l0 51c0,5 1,9 4,12 2,3 6,4 11,4 5,0 8,-1 11,-4 3,-3 4,-7 4,-12l0 -51 21 0 0 50c0,8 -2,14 -5,19 -3,5 -8,9 -13,12 -5,3 -11,4 -18,4 -7,0 -13,-1 -18,-4 -5,-3 -9,-7 -12,-12 -3,-5 -5,-12 -5,-19l0 -50 21 0z"/>
   <polygon class="fil1" points="2213,1625 2213,1710 2193,1710 2193,1659 2174,1710 2157,1710 2138,1659 2138,1710 2118,1710 2118,1625 2142,1625 2166,1684 2189,1625 "/>
   <polygon class="fil1" points="2266,1642 2266,1659 2293,1659 2293,1675 2266,1675 2266,1694 2297,1694 2297,1710 2245,1710 2245,1625 2297,1625 2297,1642 "/>
   <path class="fil1" d="M2341 1708c-5,-2 -9,-5 -12,-9 -3,-4 -4,-9 -5,-14l22 0c0,3 1,6 3,7 2,2 4,2 7,2 3,0 5,-1 7,-2 2,-1 3,-3 3,-6 0,-2 -1,-4 -2,-5 -1,-1 -3,-2 -5,-3 -2,-1 -5,-2 -9,-3 -5,-2 -10,-3 -13,-5 -3,-2 -6,-4 -9,-7 -2,-3 -4,-8 -4,-13 0,-8 3,-14 9,-18 6,-4 13,-7 22,-7 9,0 17,2 22,7 6,4 9,11 9,19l-22 0c0,-3 -1,-5 -3,-6 -2,-2 -4,-2 -7,-2 -2,0 -4,1 -6,2 -2,1 -2,3 -2,6 0,3 1,5 4,6 3,2 7,3 12,5 5,2 10,4 13,5 3,2 6,4 9,7 2,3 4,7 4,12 0,5 -1,9 -4,13 -2,4 -6,7 -11,9 -5,2 -10,3 -16,3 -6,0 -12,-1 -17,-3z"/>
   <path class="fil2" d="M1329 887c-16,0 -32,-1 -48,-3 -14,-2 -28,-5 -41,-9 -48,6 -94,0 -138,-14 -7,-2 -15,-5 -22,-8l0 0c-3,-1 -7,-3 -10,-5 -5,-2 -10,-5 -15,-7 -8,-4 -16,-9 -24,-14l0 0c-11,-7 -22,-15 -31,-23l-81 0c38,43 77,71 113,89l0 0c0,0 0,0 0,0 3,2 7,3 10,5 1,0 2,1 3,1 3,2 6,3 10,4 2,1 5,2 7,3 1,1 3,1 4,2 2,1 3,1 5,2 3,1 7,3 10,4l0 0c52,18 109,25 167,19 57,-7 109,-25 155,-53 -20,4 -41,6 -64,6 -3,0 -6,0 -10,0zm254 -281c-5,42 -17,82 -35,119 1,-16 -1,-32 -4,-48 -4,-21 -13,-39 -25,-55 5,-22 7,-45 7,-68 0,-4 0,-9 0,-14 0,-32 -1,-75 -1,-75l6 0 53 -2c0,0 5,97 -1,144zm-217 418c-246,90 -515,-33 -621,-276 -26,-60 -40,-123 -40,-189 0,-48 0,-96 0,-148 39,-6 75,-3 117,-2l0 126c0,53 7,105 27,155 8,20 17,39 28,58 2,-1 4,-2 6,-3 2,-1 4,-1 6,-1 4,0 7,-1 11,-12 1,-4 2,-9 3,-15 0,-2 0,-4 0,-6 0,-15 0,-30 0,-44 -12,-30 -19,-61 -20,-94 0,-42 0,-91 0,-140 0,-20 0,-39 0,-59 0,-47 0,-93 0,-135l635 0c0,0 1,100 2,175 10,-1 21,-1 32,-1 49,0 98,0 146,0 36,259 -48,508 -331,611zm396 -674l-177 0 0 -175 -763 0 0 170 -174 0c0,75 -2,142 0,210 7,217 105,383 296,485 190,102 382,91 565,-23 99,-61 167,-149 213,-256 56,-132 38,-270 40,-412z"/>
   <path class="fil0" d="M1357 397l0 0c1,0 5,0 0,0z"/>
   <path class="fil0" d="M1357 397l0 0c0,0 0,0 0,0z"/>
   <path class="fil0" d="M1506 786c-15,29 -40,47 -69,59 -34,14 -70,18 -107,17 -15,0 -30,-1 -45,-3 -57,-9 -106,-30 -143,-77 -22,-29 -35,-61 -43,-96 -4,-15 -8,-29 -18,-42 -1,-1 -3,-4 -5,-6 -4,-5 -11,-11 -20,-15 -5,-3 -11,-5 -18,-7 -26,-5 -52,5 -68,24 -16,18 -17,39 -17,45 -1,10 1,20 4,29 10,27 31,41 57,49 11,3 22,5 33,5 2,0 4,0 6,1 2,3 1,6 0,10l-155 0c-3,-4 -5,-7 -7,-11 0,0 0,0 0,0 18,-2 27,-13 33,-29 3,-7 4,-15 4,-22 0,-2 0,-5 0,-7l0 -13c-1,-6 -2,-15 0,-26 6,-36 38,-56 43,-58 18,-11 35,-13 51,-13 3,0 5,0 8,0 1,0 3,0 4,0 1,0 2,0 2,0 40,3 65,-14 65,-14 31,-19 46,-55 44,-86 0,-1 0,-2 0,-2 -3,-50 -45,-90 -96,-90 -1,0 -6,0 -17,0l-2 0c-8,0 -14,0 -18,0l0 166c-7,0 -15,1 -24,4 -10,2 -20,6 -30,13 -6,3 -18,12 -30,25 0,-71 0,-167 0,-220 46,0 91,-1 137,2 29,1 57,5 85,15 37,14 56,41 60,80 1,16 0,32 -4,48 -7,24 -23,41 -45,51 -14,6 -29,10 -44,13 -1,0 -3,0 -4,1 0,2 2,1 3,1 30,4 49,22 63,47 16,28 24,59 34,89 11,32 28,60 55,81 24,18 51,28 81,25 39,-3 66,-25 79,-62 7,-18 10,-37 11,-57 1,-23 1,-46 -4,-68 -9,-36 -33,-58 -71,-62 -8,-1 -16,-2 -24,-2 -1,0 -2,0 -3,1l0 10c0,49 0,98 1,147 0,11 1,22 2,32 1,7 2,14 6,20 -2,3 -4,2 -6,2 -40,-2 -65,-22 -80,-57 -6,-14 -8,-30 -8,-45 0,-78 0,-292 0,-313 25,0 60,0 84,0 1,56 0,128 0,191 14,1 27,-1 40,-4 25,-6 41,-23 48,-47 7,-25 8,-51 3,-76 -3,-16 -10,-31 -25,-41 -10,-7 -21,-9 -33,-11 -3,0 7,-1 -11,-1 0,-4 0,-8 0,-12 25,0 47,0 72,4 14,2 28,6 41,12 17,9 28,23 33,41 7,23 8,47 1,70 -9,29 -29,46 -56,58 -8,3 -16,7 -24,7 -1,0 -2,0 -2,1 1,2 2,2 4,2 47,8 84,38 94,87 7,36 4,72 -13,106z"/>
   <polygon class="fil0" points="1102,143 1309,143 1309,89 1102,89 "/>
   <polygon class="fil0" points="1383,60 1026,60 1026,8 1383,8 "/>
   <path class="fil0" d="M1090 569l0 0c0,0 -18,11 -46,11 -2,0 -5,0 -7,0 29,-15 47,-46 46,-79 -1,-31 -19,-58 -46,-73 6,0 9,0 11,0l1 0c40,0 73,31 76,72l0 1c1,22 -9,53 -35,68z"/>
  </g>
 </g>
 <g id="Layer_x0020_1_1">
  <metadata id="CorelCorpID_1Corel-Layer"/>
 </g>
 <g id="Layer_x0020_1_1_0">
  <metadata id="CorelCorpID_2Corel-Layer"/>
 </g>
</svg>
