<?xml version="1.0" encoding="UTF-8"?>
<!DOCTYPE svg PUBLIC "-//W3C//DTD SVG 1.1//EN" "http://www.w3.org/Graphics/SVG/1.1/DTD/svg11.dtd">
<!-- Creator: CorelDRAW 2019 (64-Bit) -->
<svg xmlns="http://www.w3.org/2000/svg" xml:space="preserve" width="3.7in" height="1.9in" version="1.1" style="shape-rendering:geometricPrecision; text-rendering:geometricPrecision; image-rendering:optimizeQuality; fill-rule:evenodd; clip-rule:evenodd"
viewBox="0 0 3700 1900"
 xmlns:xlink="http://www.w3.org/1999/xlink"
 xmlns:xodm="http://www.corel.com/coreldraw/odm/2003">
 <defs>
  <style type="text/css">
   <![CDATA[
    .fil2 {fill:#0098DA;fill-rule:nonzero}
    .fil0 {fill:#FB8500;fill-rule:nonzero}
    .fil1 {fill:#FFB703;fill-rule:nonzero}
   ]]>
  </style>
 </defs>
 <g id="Layer_x0020_1">
  <metadata id="CorelCorpID_0Corel-Layer"/>
  <path class="fil0" d="M1101 924c10,0 18,-3 23,-8 5,-5 8,-14 8,-26l0 -25c0,-12 -2,-20 -6,-25 -4,-5 -11,-8 -20,-8l-23 0 0 92 18 0zm-69 -139l75 0c26,0 45,6 57,18 12,12 18,31 18,56l0 20c0,34 -11,55 -33,64l0 1c12,4 21,11 26,23 5,11 8,27 8,46l0 57c0,9 0,17 1,22 1,6 2,11 5,17l-52 0c-2,-5 -3,-10 -4,-15 -1,-5 -1,-13 -1,-25l0 -59c0,-15 -2,-25 -7,-31 -5,-6 -13,-9 -25,-9l-18 0 0 139 -51 0 0 -323z"/>
  <path class="fil0" d="M1345 1036l0 -176c0,-21 -9,-32 -26,-32 -18,0 -26,11 -26,32l0 176c0,21 9,32 26,32 18,0 26,-11 26,-32zm-84 57c-13,-14 -20,-34 -20,-60l0 -170c0,-26 7,-46 20,-60 13,-14 32,-21 57,-21 25,0 44,7 57,21 13,14 20,34 20,60l0 170c0,26 -7,46 -20,60 -13,14 -32,21 -57,21 -25,0 -44,-7 -57,-21z"/>
  <polygon class="fil0" points="1496,972 1435,786 1489,786 1523,905 1524,905 1559,786 1608,786 1547,972 1547,1109 1496,1109 "/>
  <path class="fil0" d="M1733 1002l-23 -160 -1 0 -22 160 46 0zm-55 -216l69 0 53 323 -51 0 -9 -64 0 1 -58 0 -9 63 -47 0 53 -323z"/>
  <polygon class="fil0" points="1851,786 1902,786 1902,1063 1985,1063 1985,1109 1851,1109 "/>
  <path class="fil0" d="M2219 1063c9,0 16,-2 20,-7 4,-5 6,-13 6,-25l0 -28c0,-15 -3,-25 -8,-31 -5,-6 -13,-9 -25,-9l-23 0 0 99 29 0zm-9 -145c10,0 18,-3 23,-8 5,-5 8,-14 8,-26l0 -18c0,-12 -2,-20 -6,-25 -4,-5 -11,-8 -20,-8l-24 0 0 85 20 0zm-71 -132l77 0c26,0 45,6 57,18 12,12 18,31 18,56l0 13c0,17 -3,30 -8,41 -5,10 -14,18 -25,23l0 1c25,9 38,31 38,67l0 28c0,25 -7,44 -20,57 -13,13 -32,20 -57,20l-80 0 0 -323z"/>
  <polygon class="fil0" points="2353,786 2404,786 2404,1063 2488,1063 2488,1109 2353,1109 "/>
  <path class="fil0" d="M2638 1036l0 -176c0,-21 -9,-32 -26,-32 -18,0 -26,11 -26,32l0 176c0,21 9,32 26,32 18,0 26,-11 26,-32zm-84 57c-13,-14 -20,-34 -20,-60l0 -170c0,-26 7,-46 20,-60 13,-14 32,-21 57,-21 25,0 44,7 57,21 13,14 20,34 20,60l0 170c0,26 -7,46 -20,60 -13,14 -32,21 -57,21 -25,0 -44,-7 -57,-21z"/>
  <path class="fil0" d="M2850 1036l0 -176c0,-21 -9,-32 -26,-32 -18,0 -26,11 -26,32l0 176c0,21 9,32 26,32 18,0 26,-11 26,-32zm-84 57c-13,-14 -20,-34 -20,-60l0 -170c0,-26 7,-46 20,-60 13,-14 32,-21 57,-21 25,0 44,7 57,21 13,14 20,34 20,60l0 170c0,26 -7,46 -20,60 -13,14 -32,21 -57,21 -25,0 -44,-7 -57,-21z"/>
  <polygon class="fil0" points="2963,786 3035,786 3067,1017 3068,1017 3101,786 3173,786 3173,1109 3125,1109 3125,864 3124,864 3087,1109 3045,1109 3008,864 3007,864 3007,1109 2963,1109 "/>
  <path class="fil0" d="M3333 1002l-23 -160 -1 0 -22 160 46 0zm-55 -216l69 0 53 323 -51 0 -9 -64 0 1 -58 0 -9 63 -47 0 53 -323z"/>
  <path class="fil0" d="M3549 1002l-23 -160 -1 0 -22 160 46 0zm-55 -216l69 0 53 323 -51 0 -9 -64 0 1 -58 0 -9 63 -47 0 53 -323z"/>
  <path class="fil1" d="M1089 1244l-11 -34 -11 34 23 0zm6 17l-34 0 -6 16 -23 0 33 -92 26 0 33 92 -24 0 -6 -16z"/>
  <path class="fil1" d="M1214 1275c-5,-2 -10,-5 -13,-10 -3,-4 -5,-9 -5,-15l24 0c0,3 2,6 4,8 2,2 5,3 8,3 3,0 6,-1 8,-2 2,-2 3,-4 3,-6 0,-2 -1,-4 -2,-6 -2,-1 -3,-3 -6,-4 -2,-1 -5,-2 -10,-3 -6,-2 -11,-4 -15,-6 -4,-2 -7,-5 -10,-8 -3,-4 -4,-8 -4,-14 0,-9 3,-15 9,-20 6,-5 14,-7 24,-7 10,0 18,2 25,7 6,5 10,12 10,20l-24 0c0,-3 -1,-5 -3,-7 -2,-2 -5,-3 -8,-3 -3,0 -5,1 -7,2 -2,1 -2,4 -2,6 0,3 1,5 4,7 3,2 7,3 13,5 6,2 11,4 14,6 4,2 7,5 10,8 3,3 4,8 4,14 0,5 -1,10 -4,14 -3,4 -7,8 -12,10 -5,3 -11,4 -18,4 -7,0 -13,-1 -18,-3z"/>
  <path class="fil1" d="M1300 1207c4,-7 9,-13 16,-17 7,-4 15,-6 24,-6 11,0 20,3 28,9 8,6 13,14 16,24l-25 0c-2,-4 -4,-7 -8,-9 -3,-2 -7,-3 -11,-3 -7,0 -13,2 -17,7 -4,5 -6,11 -6,19 0,8 2,14 6,19 4,5 10,7 17,7 4,0 8,-1 11,-3 3,-2 6,-5 8,-9l25 0c-3,10 -8,18 -16,24 -8,6 -17,9 -28,9 -9,0 -17,-2 -24,-6 -7,-4 -13,-10 -16,-17 -4,-7 -6,-15 -6,-24 0,-9 2,-17 6,-24z"/>
  <polygon class="fil1" points="1439,1203 1439,1222 1469,1222 1469,1239 1439,1239 1439,1259 1473,1259 1473,1277 1417,1277 1417,1185 1473,1185 1473,1203 "/>
  <polygon class="fil1" points="1588,1277 1566,1277 1528,1221 1528,1277 1506,1277 1506,1185 1528,1185 1566,1242 1566,1185 1588,1185 "/>
  <polygon class="fil1" points="1689,1185 1689,1203 1665,1203 1665,1277 1642,1277 1642,1203 1618,1203 1618,1185 "/>
  <polygon class="fil1" points="1831,1185 1831,1203 1807,1203 1807,1277 1785,1277 1785,1203 1760,1203 1760,1185 "/>
  <polygon class="fil1" points="1941,1185 1941,1277 1918,1277 1918,1239 1884,1239 1884,1277 1861,1277 1861,1185 1884,1185 1884,1221 1918,1221 1918,1185 "/>
  <path class="fil1" d="M2027 1244l-11 -34 -11 34 23 0zm6 17l-34 0 -6 16 -23 0 33 -92 26 0 33 92 -24 0 -6 -16z"/>
  <polygon class="fil1" points="2157,1185 2157,1203 2132,1203 2132,1277 2110,1277 2110,1203 2086,1203 2086,1185 "/>
  <path class="fil1" d="M2248 1275c-5,-2 -10,-5 -13,-10 -3,-4 -5,-9 -5,-15l24 0c0,3 2,6 4,8 2,2 5,3 8,3 3,0 6,-1 8,-2 2,-2 3,-4 3,-6 0,-2 -1,-4 -2,-6 -2,-1 -3,-3 -6,-4 -2,-1 -5,-2 -10,-3 -6,-2 -11,-4 -15,-6 -4,-2 -7,-5 -10,-8 -3,-4 -4,-8 -4,-14 0,-9 3,-15 9,-20 6,-5 14,-7 24,-7 10,0 18,2 25,7 6,5 10,12 10,20l-24 0c0,-3 -1,-5 -3,-7 -2,-2 -5,-3 -8,-3 -3,0 -5,1 -7,2 -2,1 -2,4 -2,6 0,3 1,5 4,7 3,2 7,3 13,5 6,2 11,4 15,6 4,2 7,5 10,8 3,3 4,8 4,14 0,5 -1,10 -4,14 -3,4 -7,8 -12,10 -5,3 -11,4 -18,4 -7,0 -13,-1 -18,-3z"/>
  <path class="fil1" d="M2376 1223c2,-2 3,-5 3,-9 0,-4 -1,-7 -3,-9 -2,-2 -5,-3 -10,-3l-12 0 0 23 12 0c4,0 7,-1 10,-3zm22 6c-2,4 -6,8 -11,11 -5,3 -11,4 -19,4l-14 0 0 33 -22 0 0 -92 36 0c7,0 14,1 19,4 5,3 9,6 11,11 3,4 4,10 4,15 0,5 -1,10 -4,15z"/>
  <polygon class="fil1" points="2455,1203 2455,1222 2485,1222 2485,1239 2455,1239 2455,1259 2489,1259 2489,1277 2432,1277 2432,1185 2489,1185 2489,1203 "/>
  <path class="fil1" d="M2573 1244l-11 -34 -11 34 23 0zm6 17l-34 0 -6 16 -23 0 33 -92 26 0 33 92 -24 0 -6 -16z"/>
  <polygon class="fil1" points="2690,1277 2659,1237 2659,1277 2637,1277 2637,1185 2659,1185 2659,1226 2690,1185 2716,1185 2680,1230 2717,1277 "/>
  <path class="fil1" d="M2762 1275c-5,-2 -10,-5 -13,-10 -3,-4 -5,-9 -5,-15l24 0c0,3 2,6 4,8 2,2 5,3 8,3 3,0 6,-1 8,-2 2,-2 3,-4 3,-6 0,-2 -1,-4 -2,-6 -2,-1 -3,-3 -6,-4 -2,-1 -5,-2 -10,-3 -6,-2 -11,-4 -15,-6 -4,-2 -7,-5 -10,-8 -3,-4 -4,-8 -4,-14 0,-9 3,-15 9,-20 6,-5 14,-7 24,-7 10,0 18,2 25,7 6,5 10,12 10,20l-24 0c0,-3 -1,-5 -3,-7 -2,-2 -5,-3 -8,-3 -3,0 -5,1 -7,2 -2,1 -2,4 -2,6 0,3 1,5 4,7 3,2 7,3 13,5 6,2 11,4 15,6 4,2 7,5 10,8 3,3 4,8 4,14 0,5 -1,10 -4,14 -3,4 -7,8 -12,10 -5,3 -11,4 -18,4 -7,0 -13,-1 -18,-3z"/>
  <polygon class="fil1" points="2978,1185 2946,1277 2917,1277 2885,1185 2909,1185 2931,1255 2954,1185 "/>
  <path class="fil1" d="M3067 1251c4,-5 7,-11 7,-19 0,-8 -2,-15 -7,-19 -4,-5 -10,-7 -18,-7 -7,0 -13,2 -18,7 -4,5 -7,11 -7,20 0,8 2,15 7,19 4,5 10,7 18,7 7,0 13,-2 18,-7zm-41 22c-7,-4 -13,-10 -17,-17 -4,-7 -6,-15 -6,-24 0,-9 2,-17 6,-24 4,-7 10,-13 17,-17 7,-4 15,-6 24,-6 9,0 17,2 24,6 7,4 13,10 17,17 4,7 6,15 6,24 0,9 -2,17 -6,24 -4,7 -10,13 -17,17 -7,4 -15,6 -24,6 -9,0 -17,-2 -24,-6z"/>
  <polygon class="fil1" points="3150,1260 3179,1260 3179,1277 3127,1277 3127,1185 3150,1185 "/>
  <path class="fil1" d="M3230 1185l0 55c0,6 1,10 4,13 3,3 7,4 12,4 5,0 9,-1 12,-4 3,-3 4,-7 4,-13l0 -55 22 0 0 55c0,8 -2,15 -5,21 -4,6 -8,10 -14,13 -6,3 -12,4 -20,4 -7,0 -14,-1 -19,-4 -6,-3 -10,-7 -14,-13 -3,-6 -5,-13 -5,-21l0 -55 22 0z"/>
  <polygon class="fil1" points="3424,1185 3424,1277 3401,1277 3401,1222 3381,1277 3363,1277 3342,1222 3342,1277 3319,1277 3319,1185 3346,1185 3372,1249 3397,1185 "/>
  <polygon class="fil1" points="3481,1203 3481,1222 3511,1222 3511,1239 3481,1239 3481,1259 3515,1259 3515,1277 3458,1277 3458,1185 3515,1185 3515,1203 "/>
  <path class="fil1" d="M3563 1275c-5,-2 -10,-5 -13,-10 -3,-4 -5,-9 -5,-15l24 0c0,3 2,6 4,8 2,2 5,3 8,3 3,0 6,-1 8,-2 2,-2 3,-4 3,-6 0,-2 -1,-4 -2,-6 -2,-1 -3,-3 -6,-4 -2,-1 -5,-2 -10,-3 -6,-2 -11,-4 -15,-6 -4,-2 -7,-5 -10,-8 -3,-4 -4,-8 -4,-14 0,-9 3,-15 9,-20 6,-5 14,-7 24,-7 10,0 18,2 25,7 6,5 10,12 10,20l-24 0c0,-3 -1,-5 -3,-7 -2,-2 -5,-3 -8,-3 -3,0 -5,1 -7,2 -2,1 -2,4 -2,6 0,3 1,5 4,7 3,2 7,3 13,5 6,2 11,4 15,6 4,2 7,5 10,8 3,3 4,8 4,14 0,5 -1,10 -4,14 -3,4 -7,8 -12,10 -5,3 -11,4 -18,4 -7,0 -13,-1 -18,-3z"/>
  <path class="fil1" d="M572 1246c-12,0 -23,-1 -35,-3 -11,-2 -21,-4 -30,-7 -35,4 -69,0 -101,-10 -6,-2 -11,-4 -16,-6l0 0c-3,-1 -5,-2 -8,-3 -4,-2 -7,-3 -11,-5 -6,-3 -12,-7 -18,-10l0 0c-8,-5 -16,-11 -23,-17l-60 0c28,31 57,52 83,66l0 0c0,0 0,0 0,0 3,1 5,3 8,4 1,0 1,1 2,1 2,1 5,2 7,3 2,1 3,1 5,2 1,0 2,1 3,1 1,0 2,1 4,1 3,1 5,2 8,3l0 0c39,14 80,19 122,14 42,-5 80,-18 114,-39 -15,3 -30,4 -47,4 -2,0 -5,0 -7,0zm187 -206c-4,31 -13,60 -26,87 0,-11 -1,-23 -3,-35 -3,-15 -9,-29 -18,-41 3,-16 5,-33 5,-50 0,-3 0,-7 0,-10 0,-23 -1,-55 -1,-55l5 0 39 -1c0,0 4,71 -1,106zm-159 307c-181,66 -379,-24 -457,-203 -19,-44 -29,-90 -29,-138 0,-35 0,-71 0,-108 28,-4 55,-2 86,-1l0 92c0,39 5,77 20,114 6,15 13,29 20,42 1,-1 3,-2 4,-2 2,0 3,-1 5,-1 3,0 5,-1 8,-9 1,-3 2,-6 2,-11 0,-2 0,-3 0,-4 0,-11 0,-22 0,-33 -9,-22 -14,-45 -14,-69 0,-31 0,-67 0,-103 0,-14 0,-29 0,-43 0,-35 0,-69 0,-99l467 0c0,0 1,74 1,129 8,-1 15,-1 23,-1 36,0 72,0 107,0 27,190 -35,373 -244,449zm291 -495l-130 0 0 -128 -561 0 0 125 -128 0c0,55 -1,105 0,154 5,160 78,281 218,357 140,75 281,67 415,-17 72,-45 123,-110 157,-188 42,-97 28,-199 29,-303z"/>
  <path class="fil2" d="M593 886l0 0c1,0 3,0 0,0z"/>
  <path class="fil2" d="M593 886l0 0c0,0 0,0 0,0z"/>
  <path class="fil0" d="M702 1172c-11,21 -29,34 -51,43 -25,10 -52,13 -79,12 -11,0 -22,-1 -33,-2 -42,-7 -78,-22 -105,-56 -16,-21 -26,-45 -32,-70 -3,-11 -6,-22 -13,-31 -1,-1 -2,-3 -4,-4 -3,-3 -8,-8 -14,-11 -4,-2 -8,-4 -13,-5 -19,-4 -38,4 -50,18 -11,13 -12,29 -13,33 0,7 1,15 3,21 7,20 23,30 42,36 8,2 16,3 24,4 2,0 3,0 5,1 1,2 1,4 0,7l-114 0c-2,-3 -4,-5 -6,-8 0,0 0,0 0,0 13,-1 20,-10 24,-21 2,-5 3,-11 3,-16 0,-2 0,-4 0,-5l0 -10c-1,-5 -1,-11 0,-19 5,-26 28,-41 31,-43 13,-8 26,-10 38,-10 2,0 4,0 6,0 1,0 2,0 3,0 1,0 1,0 1,0 30,2 48,-10 48,-10 22,-14 34,-41 33,-63 0,-1 0,-1 0,-1 -2,-37 -33,-66 -70,-66 -1,0 -5,0 -13,0l-1 0c-6,0 -10,0 -13,0l0 122c-5,0 -11,1 -17,3 -7,2 -14,5 -22,9 -4,3 -13,9 -22,19 0,-52 0,-123 0,-161 34,0 67,0 101,1 21,1 42,4 62,11 27,10 41,30 44,59 1,12 0,24 -3,35 -5,18 -17,30 -33,38 -10,5 -21,7 -32,10 -1,0 -2,0 -3,1 0,1 1,1 2,1 22,3 36,16 46,34 12,20 17,43 25,65 8,24 21,44 41,60 17,13 37,21 60,19 29,-3 48,-18 58,-45 5,-13 7,-27 8,-42 1,-17 1,-34 -3,-50 -7,-27 -25,-42 -52,-46 -6,-1 -12,-2 -18,-1 -1,0 -1,0 -2,0l0 8c0,36 0,72 1,108 0,8 1,16 2,24 1,5 2,10 5,15 -1,2 -3,2 -4,2 -29,-2 -48,-16 -59,-42 -5,-11 -6,-22 -6,-33 0,-57 0,-214 0,-230 19,0 44,0 62,0 1,41 0,94 0,141 10,1 20,0 30,-3 19,-5 30,-17 35,-35 5,-19 6,-37 2,-56 -2,-12 -7,-23 -18,-30 -7,-5 -16,-7 -24,-8 -2,0 5,-1 -8,-1 0,-3 0,-6 0,-9 18,0 34,0 53,3 10,1 21,4 30,9 13,7 21,17 25,30 5,17 6,35 1,52 -6,21 -22,34 -41,43 -6,2 -12,5 -18,5 -1,0 -1,0 -2,1 0,1 2,1 3,1 35,6 62,28 69,64 5,27 3,53 -10,78z"/>
  <polygon class="fil0" points="406,700 557,700 557,660 406,660 "/>
  <polygon class="fil0" points="612,639 349,639 349,600 612,600 "/>
  <path class="fil0" d="M396 1013l0 0c0,0 -13,8 -34,8 -2,0 -3,0 -5,0 21,-11 35,-34 34,-58 -1,-22 -14,-43 -34,-53 4,0 7,0 8,0l1 0c29,0 54,23 56,53l0 1c1,16 -7,39 -26,50z"/>
 </g>
 <g id="Layer_x0020_1_1">
  <metadata id="CorelCorpID_1Corel-Layer"/>
 </g>
</svg>
